# xmcd
#
# Track frame offsets: 
#        150
#        20650
#        40253
#        64870
#        88965
#        126088
#        146200
#        164615
#        189860
#        208290
#        227583
#
# Disc length: 3321 seconds
#
# Revision: 2
# Processed by: cddbd v1.5.1PL0 Copyright (c) Steve Scherf et al.
# Submitted via: ExactAudioCopy v0.95a5
#
DISCID=a30cf70b
DTITLE=Mark Germino And The Sluggers - Radartown
DYEAR=1991
DGENRE=Rock
TTITLE0=Radartown
TTITLE1=Let Freedom Ring (volumes 4, 5 And 6)
TTITLE2=Leroy and Bo's Totalitarian Showdown
TTITLE3=Unionville
TTITLE4=Economics (Of The Rat And Snake)
TTITLE5=She's A Mystery
TTITLE6=Pandora's Boxcar Blues
TTITLE7=Exalted Rose
TTITLE8=Burning The Firehouse Down
TTITLE9=Serenade Of Red Cross
TTITLE10=Rex Bob Lowenstein
EXTD=
EXTT0=
EXTT1=
EXTT2=
EXTT3=
EXTT4=
EXTT5=
EXTT6=
EXTT7=
EXTT8=
EXTT9=
EXTT10=
PLAYORDER=
